<svg width="25" height="25" viewBox="0 0 25 25" fill="none" xmlns="http://www.w3.org/2000/svg">
<path d="M10.3125 4.375H14.6875C14.8594 4.375 15 4.51562 15 4.6875V6.25H10V4.6875C10 4.51562 10.1406 4.375 10.3125 4.375ZM8.125 4.6875V6.25H5C3.62109 6.25 2.5 7.37109 2.5 8.75V12.5H22.5V8.75C22.5 7.37109 21.3789 6.25 20 6.25H16.875V4.6875C16.875 3.48047 15.8945 2.5 14.6875 2.5H10.3125C9.10547 2.5 8.125 3.48047 8.125 4.6875ZM22.5 14.375H15V15C15 15.6914 14.4414 16.25 13.75 16.25H11.25C10.5586 16.25 10 15.6914 10 15V14.375H2.5V18.75C2.5 20.1289 3.62109 21.25 5 21.25H20C21.3789 21.25 22.5 20.1289 22.5 18.75V14.375Z" fill="#294F7C"/>
</svg>
