<svg width="24" height="24" viewBox="0 0 24 24" fill="none" xmlns="http://www.w3.org/2000/svg">
<path d="M19.5 9.75C19.5 11.9016 18.8016 13.8891 17.625 15.5016L23.5594 21.4406C24.1453 22.0266 24.1453 22.9781 23.5594 23.5641C22.9734 24.15 22.0219 24.15 21.4359 23.5641L15.5016 17.625C13.8891 18.8016 11.9016 19.5 9.75 19.5C4.36406 19.5 0 15.1359 0 9.75C0 4.36406 4.36406 0 9.75 0C15.1359 0 19.5 4.36406 19.5 9.75ZM4.875 10.125V13.125C4.875 13.7484 5.37656 14.25 6 14.25C6.62344 14.25 7.125 13.7484 7.125 13.125V10.125C7.125 9.50156 6.62344 9 6 9C5.37656 9 4.875 9.50156 4.875 10.125ZM8.625 5.625V13.125C8.625 13.7484 9.12656 14.25 9.75 14.25C10.3734 14.25 10.875 13.7484 10.875 13.125V5.625C10.875 5.00156 10.3734 4.5 9.75 4.5C9.12656 4.5 8.625 5.00156 8.625 5.625ZM12.375 8.625V13.125C12.375 13.7484 12.8766 14.25 13.5 14.25C14.1234 14.25 14.625 13.7484 14.625 13.125V8.625C14.625 8.00156 14.1234 7.5 13.5 7.5C12.8766 7.5 12.375 8.00156 12.375 8.625Z" fill="#294F7C"/>
</svg>
