<svg width="23" height="13" viewBox="0 0 23 13" fill="none" xmlns="http://www.w3.org/2000/svg">
<path d="M15.0029 2.5C14.3115 2.5 13.7529 1.94141 13.7529 1.25C13.7529 0.558594 14.3115 -1.69024e-07 15.0029 -1.7719e-07L21.2529 -2.51004e-07C21.9443 -2.5917e-07 22.5029 0.558593 22.5029 1.25L22.5029 7.5C22.5029 8.19141 21.9443 8.75 21.2529 8.75C20.5615 8.75 20.0029 8.19141 20.0029 7.5L20.0029 4.26953L13.3857 10.8867C12.8975 11.375 12.1045 11.375 11.6162 10.8867L7.50293 6.76953L2.13574 12.1328C1.64746 12.6211 0.854492 12.6211 0.366211 12.1328C-0.12207 11.6445 -0.12207 10.8516 0.366211 10.3633L6.61621 4.11328C7.10449 3.625 7.89746 3.625 8.38574 4.11328L12.5029 8.23047L18.2334 2.5L15.0029 2.5Z" fill="#294F7C"/>
</svg>
