<svg width="30" height="27" viewBox="0 0 30 27" fill="none" xmlns="http://www.w3.org/2000/svg">
<path d="M8.62515 5.25C10.0736 5.25 11.2502 4.07344 11.2502 2.625C11.2502 1.17656 10.0736 0 8.62515 0C7.17671 0 6.00015 1.17656 6.00015 2.625C6.00015 4.07344 7.17671 5.25 8.62515 5.25ZM7.87515 25.5V18C7.87515 17.5875 8.21265 17.25 8.62515 17.25C9.03765 17.25 9.37515 17.5875 9.37515 18V25.5C9.37515 26.3297 10.0455 27 10.8752 27C11.7048 27 12.3752 26.3297 12.3752 25.5V9.75H18.3752C19.2048 9.75 19.8752 9.07969 19.8752 8.25C19.8752 7.42031 19.2048 6.75 18.3752 6.75H17.6252V4.5H26.6251V13.5H17.6252V12H14.6252V14.25C14.6252 15.4922 15.633 16.5 16.8752 16.5H27.3751C28.6173 16.5 29.6251 15.4922 29.6251 14.25V3.75C29.6251 2.50781 28.6173 1.5 27.3751 1.5H16.8752C15.633 1.5 14.6252 2.50781 14.6252 3.75V6.75H8.87359C6.73609 6.75 4.72515 7.7625 3.45484 9.47812L0.295463 13.7297C-0.196725 14.3953 -0.0607873 15.3328 0.604838 15.8297C1.27046 16.3266 2.20796 16.1859 2.70484 15.5203L4.87515 12.5953V25.5C4.87515 26.3297 5.54546 27 6.37515 27C7.20484 27 7.87515 26.3297 7.87515 25.5Z" fill="#294F7C"/>
</svg>
